<?xml version="1.0" standalone="no"?>
<!DOCTYPE svg PUBLIC "-//W3C//DTD SVG 1.1//EN" "http://www.w3.org/Graphics/SVG/1.1/DTD/svg11.dtd" >
<svg xmlns="http://www.w3.org/2000/svg">
<metadata></metadata>
<defs>
<font id="showcard_gothicregular" horiz-adv-x="1417" >
<font-face units-per-em="2048" ascent="1633" descent="-415" />
<missing-glyph horiz-adv-x="410" />
<glyph horiz-adv-x="2048" />
<glyph horiz-adv-x="2048" />
<glyph unicode="&#xd;" horiz-adv-x="2048" />
<glyph unicode=" "  horiz-adv-x="410" />
<glyph unicode="&#x09;" horiz-adv-x="410" />
<glyph unicode="&#xa0;" horiz-adv-x="410" />
<glyph unicode="!" horiz-adv-x="889" d="M133 1536h623q-56 -237 -115 -541q-29 -138 -58 -277q-32 -155 -32 -211q0 -16 2 -26q-5 -1 -107 -12q-57 -7 -122 -18q-24 163 -84 534q-35 169 -107 551zM195 156q0 81 65.5 132.5t163.5 51.5q89 0 154 -51q67 -54 67 -135q0 -78 -66.5 -131.5t-154.5 -53.5 q-94 0 -161.5 53.5t-67.5 133.5z" />
<glyph unicode="&#x22;" horiz-adv-x="811" d="M123 1536h246l-17 -715h-211zM444 1536h244l-14 -715h-211z" />
<glyph unicode="#" horiz-adv-x="1163" d="M82 1087h149l-24 304h289v-304h168v302h288q1 -26 -22 -299l151 -3l-30 -268h-142l-14 -180h137l-18 -195h-131l-27 -299h-192v299h-166v-299h-193l-26 299h-132l-18 195h137l-14 180h-141zM496 639h168v180h-168v-180z" />
<glyph unicode="$" horiz-adv-x="938" d="M37 1065q0 166 91 279q83 103 226 147l-14 166h307l-6 -125q39 -1 113 -6q66 -7 131 -23l-23 -499q-56 18 -101 18q-140 0 -140 -154q0 -89 79.5 -231.5t79.5 -247.5q0 -124 -71 -202q-45 -50 -140 -97l-6 -235h-188l-4 196h-74q-29 0 -100 19q-4 32 -13 110 q-6 44 -20 123q45 -13 90 -13q139 0 139 130q0 75 -92 185q-86 103 -172 205q-92 131 -92 255z" />
<glyph unicode="%" horiz-adv-x="1628" d="M51 1135q0 211 98 328q89 106 226 106q136 0 221 -106q94 -117 94 -328q0 -187 -93.5 -325t-223.5 -138q-142 0 -234 139q-88 133 -88 324zM270 20l848 1547l244 -107l-932 -1521zM289 1004q0 -50 23 -91q24 -45 61 -45q34 0 60 47q24 43 24 91q0 129 -84 129t-84 -131z M936 432q0 212 98 330q89 106 228 106q134 0 219 -106q94 -116 96 -326q1 -188 -92.5 -327.5t-224.5 -139.5q-141 0 -234 140q-90 134 -90 323zM1174 305q0 -50 23 -93q26 -46 63 -46q35 0 61 47q22 43 22 92q0 131 -83 131q-86 0 -86 -131z" />
<glyph unicode="&#x26;" horiz-adv-x="1296" d="M41 326q0 145 87 264q96 130 267 184q-127 277 -127 412q0 238 142 350h690q-141 -120 -194 -209q-72 -124 -72 -311q0 -287 139 -567q24 31 82 122q23 42 57 142l78 -123q28 -46 65 -98q-22 -38 -50 -77q-67 -92 -154 -171q40 -79 141 -244h-318l-51 72 q-169 -142 -352 -142q-181 0 -303 109q-127 112 -127 287zM424 307q0 -56 50 -88q46 -28 101 -22q48 5 115 45l-143 219q-123 -49 -123 -154z" />
<glyph unicode="'" horiz-adv-x="489" d="M123 1536h244l-15 -715h-211z" />
<glyph unicode="(" horiz-adv-x="827" d="M88 973q0 528 225 805l426 -250q-232 -294 -233 -729q0 -548 207 -899l-193 -107q-162 201 -276 466q-156 361 -156 714z" />
<glyph unicode=")" horiz-adv-x="827" d="M90 1528l424 250q225 -277 225 -805q0 -354 -155 -714q-115 -267 -277 -466l-192 107q211 359 209 899q-3 435 -234 729z" />
<glyph unicode="*" horiz-adv-x="928" d="M72 1036v195l235 -10l-125 204l170 101l115 -213l111 211l165 -99l-122 -198l235 8v-195l-238 7l125 -205l-165 -97l-117 213l-109 -210l-170 98l125 201z" />
<glyph unicode="+" horiz-adv-x="1108" d="M123 846h299l-8 289h272l-8 -289h307l-45 -240h-270l-8 -284h-228q0 51 -4 284h-258z" />
<glyph unicode="," horiz-adv-x="567" d="M102 -289q47 193 45 301q0 86 -36 240q49 14 174 53q62 22 164 72q15 -73 15 -158q0 -80 -15 -151q-55 -246 -189 -398q-17 2 -74 15q-30 7 -84 26z" />
<glyph unicode="-" horiz-adv-x="850" d="M123 657h604l-45 -305h-510z" />
<glyph unicode="." horiz-adv-x="614" d="M82 156q0 81 65 132.5t162 51.5q91 0 157 -52t66 -134q0 -79 -66.5 -132t-156.5 -53q-94 0 -159 53q-68 54 -68 134z" />
<glyph unicode="/" horiz-adv-x="870" d="M-33 -98q72 198 326 927q116 339 262 842l293 -94l-678 -1729z" />
<glyph unicode="0" horiz-adv-x="1208" d="M41 801q0 378 177 580q154 175 396 175q234 0 385 -182q168 -203 168 -569q0 -333 -163 -580q-166 -252 -396 -252q-249 0 -412 251q-155 240 -155 577zM461 573q0 -111 39 -198q43 -96 108 -96q63 0 108 100q42 94 42 203q0 280 -150 280q-147 0 -147 -289z" />
<glyph unicode="1" horiz-adv-x="850" d="M18 1292q113 48 400 181q89 43 235 122l97 -55q-7 -204 -21 -725q-5 -260 -10 -817h-445q2 309 -6 575q-2 78 -10 422q-17 -3 -74 -16q-30 -7 -71 -23z" />
<glyph unicode="2" horiz-adv-x="942" d="M47 973l47 538q150 54 320 54q223 0 357 -123.5t134 -325.5q0 -314 -448 -837h170q39 0 127 8q34 3 92 12q-14 -44 -43 -147q-14 -53 -39 -152h-645l-45 102q150 262 206 395q74 176 74 314q0 98 -60 150q-50 43 -118 43q-66 0 -129 -31z" />
<glyph unicode="3" horiz-adv-x="1006" d="M55 1004l39 503q175 61 371 60q213 -2 354.5 -120t141.5 -304q0 -194 -70 -306q-66 -106 -236 -200q205 -90 205 -303q0 -172 -127 -267q-114 -85 -293 -85q-172 0 -209 12l-34 149q-13 54 -37 146q108 -37 188 -37q70 0 115 41t45 104q0 60 -44 101q-49 45 -132 45 q-20 0 -41 -2l-39 202q87 10 129 67q31 43 31 95q0 135 -152 135q-87 0 -205 -36z" />
<glyph unicode="4" horiz-adv-x="1159" d="M-23 248q104 189 136 262q47 105 94 268q43 151 33 369h266q-6 188 -17 389h504q-11 -251 -30 -817q-4 -80 -9 -240h13q95 0 127 4t71 19l-32 -121q-14 -50 -33 -133h-146q-2 -139 -2 -248h-417q0 104 -5 248h-553zM360 481h172q-3 150 -8 367q-80 -236 -164 -367z" />
<glyph unicode="5" horiz-adv-x="1024" d="M41 565q38 159 109 516q30 183 69 455h559h72q21 2 61 10l-90 -493h-426l-43 -162q113 29 228 29q163 0 277 -119q116 -122 116 -303q0 -261 -173 -401q-154 -124 -401 -124q-138 0 -249 27q-6 41 -19 135q-8 52 -22 137q110 -61 217 -61q247 0 247 156q0 140 -195 140 q-120 0 -228 -50z" />
<glyph unicode="6" horiz-adv-x="1094" d="M41 590q0 228 106 481q93 222 291 514l473 -100q-69 -65 -219 -234q-156 -205 -192 -286q97 41 192 41q160 0 264 -122q107 -125 107 -325q0 -280 -132 -441.5t-356 -158.5q-247 3 -387 161q-147 165 -147 470zM442 487q0 -88 33 -151q37 -72 100 -72q51 0 90.5 62 t39.5 137q0 80 -39 129t-95 49q-63 0 -108 -45q-21 -51 -21 -109z" />
<glyph unicode="7" horiz-adv-x="1100" d="M57 1536l947 -4l77 -86q-59 -112 -112 -218q-125 -256 -193 -446q-133 -372 -227 -800l-332 18q41 285 109 594q60 273 116 448q-53 -1 -177 -8.5t-187 -21.5z" />
<glyph unicode="8" horiz-adv-x="1124" d="M41 1065q0 197 139 343q151 157 381 157q219 0 370.5 -146.5t151.5 -353.5q0 -314 -221 -422q129 -107 129 -274q0 -155 -139 -275q-133 -114 -291 -114q-171 0 -300 114q-132 116 -132 273q0 169 129 270q-217 114 -217 428zM440 922q0 -71 34.5 -122.5t86.5 -51.5 q58 0 92 52q31 49 31 124q0 55 -35.5 98t-87.5 43q-53 0 -87 -43t-34 -100zM471 362q0 -122 90 -122q88 0 88 127q0 40 -25.5 75.5t-62.5 34.5q-38 -1 -64 -36.5t-26 -78.5z" />
<glyph unicode="9" horiz-adv-x="1126" d="M45 963q0 253 157 428.5t382 175.5q216 0 357.5 -171.5t141.5 -432.5q0 -214 -142 -520q-125 -269 -296 -484l-309 47q43 72 77 136q84 155 113 247q-171 -2 -306 119q-175 157 -175 455zM422 842q0 -180 205 -191q15 21 31 77q20 67 20 122q0 61 -38.5 101t-94.5 40 q-51 0 -85 -38q-38 -41 -38 -111z" />
<glyph unicode=":" horiz-adv-x="696" d="M123 156q0 81 66.5 132.5t164.5 51.5q90 0 154 -51q67 -54 67 -135q0 -78 -67 -131.5t-154 -53.5q-94 0 -161 53q-70 54 -70 134zM123 829q0 83 65 134t162 51q91 0 156 -51q67 -54 67 -136q0 -78 -67.5 -131t-155.5 -53q-94 0 -160.5 52.5t-66.5 133.5z" />
<glyph unicode=";" horiz-adv-x="696" d="M123 829q0 83 65 134t162 51q91 0 156 -51q67 -54 67 -136q0 -78 -67.5 -131t-155.5 -53q-94 0 -160.5 52.5t-66.5 133.5zM186 -289q49 193 47 301q0 86 -38 240q47 12 174 53q62 24 163 72q17 -73 17 -158q0 -80 -17 -151q-55 -246 -186 -398q-18 3 -74 15q-32 8 -86 26 z" />
<glyph unicode="&#x3c;" horiz-adv-x="827" d="M102 686v164l623 350v-274l-311 -158l311 -158v-274z" />
<glyph unicode="=" horiz-adv-x="1034" d="M123 1061h788l-20 -232h-748zM158 672h721l-21 -238h-682z" />
<glyph unicode="&#x3e;" horiz-adv-x="827" d="M102 336v274l312 158l-312 158v274l623 -350v-164z" />
<glyph unicode="?" horiz-adv-x="1012" d="M92 1012l31 522q135 45 293 45q534 0 534 -405q0 -124 -94 -248q-30 -39 -178 -188.5t-148 -192.5q0 -44 21 -76q-29 -3 -131 -20q-95 -19 -137 -41q-27 60 -27 127q0 94 62.5 210t62.5 177q0 57 -39 94t-94 37q-76 0 -156 -41zM205 156q0 81 66.5 132.5t164.5 51.5 q90 0 154 -51q67 -54 67 -135q0 -78 -67 -131.5t-154 -53.5q-94 0 -162.5 53.5t-68.5 133.5z" />
<glyph unicode="@" horiz-adv-x="1532" d="M33 762q0 332 226 540q216 199 538 199q288 0 490 -180q212 -189 212 -485q0 -533 -446 -533q-135 0 -222 82q-80 -80 -163 -80q-112 0 -178 75q-60 68 -60 165q0 108 83 180q76 66 171 66q41 0 74 -15q-6 62 -43 105q-42 47 -103 47q-19 0 -39 -4l109 262 q110 11 184 -21q135 -57 177 -232q16 -65 32 -319q8 -122 78 -120q69 1 108 95q35 86 35 224q0 250 -173 387q-142 113 -330 113q-222 0 -387 -160.5t-166 -378.5q-2 -231 134 -392q148 -177 394 -179q44 -1 104 2v-168q-57 -6 -133 -6q-245 0 -448 159q-258 204 -258 572z M686 539q0 -52 54 -52q33 0 59 15l-21 88q-92 13 -92 -51z" />
<glyph unicode="A" horiz-adv-x="1260" d="M-16 0q64 247 198 815q82 380 137 721h601q28 -157 153 -731q69 -300 191 -805h-547l-37 133q-23 -9 -115 -61q-59 -38 -131 -101l-57 121q-17 36 -49 101l-54 -193h-290zM358 285q30 0 136 12q64 9 139 31q-17 53 -60 172q-26 66 -79 182q-23 -58 -72 -190 q-27 -76 -64 -207z" />
<glyph unicode="B" horiz-adv-x="1358" d="M41 1536q190 37 481 37q811 0 811 -543q0 -180 -86 -311q-73 -110 -182 -156q70 -30 114 -99t44 -147q0 -194 -207 -284q-160 -70 -420 -70q-224 0 -481 37q-7 233 -29 760q-15 283 -45 776zM686 236q13 -1 24 -1q183 0 183 132q0 116 -166 116q-17 0 -35 -2zM702 694h21 q203 0 203 148q0 77 -62 118q-53 35 -138 35h-9z" />
<glyph unicode="C" horiz-adv-x="1217" d="M35 774q0 344 210 556q224 226 619 226q190 0 275 -22l32 -627q-55 17 -141 17q-160 0 -260 -84q-113 -94 -113 -271q0 -138 89.5 -226.5t234.5 -88.5q99 0 188 49q-10 -41 -34 -151q-14 -73 -27 -152q-112 -43 -287 -43q-317 0 -542 213q-244 232 -244 604z" />
<glyph unicode="D" horiz-adv-x="1442" d="M41 1532q217 31 453 31q421 0 659 -196q254 -210 254 -611q0 -361 -224 -568q-231 -215 -651 -215q-270 0 -417 27l-27 743q-13 286 -47 789zM686 276q128 8 209 83q102 93 102 274q0 147 -95 217q-73 53 -183 53h-19z" />
<glyph unicode="E" horiz-adv-x="1137" d="M41 1536h1051l-43 -633q-37 6 -160 21q-84 8 -184 10l-15 -191q30 -1 70 -1q108 0 289 6q-11 -37 -35 -138q-14 -61 -25 -141q-29 7 -145 18q-40 2 -110 2h-50l-10 -223q75 1 276 13q38 3 125 24q-8 -31 -37 -149q-14 -61 -34 -154h-895l-29 784q-8 269 -39 752z" />
<glyph unicode="F" horiz-adv-x="1118" d="M41 1536h1044l-41 -629q-37 6 -157 17q-72 3 -170 4l-17 -322q11 0 23 -1q103 0 295 16q-10 -45 -31 -148q-11 -61 -24 -147q-28 6 -129 18q-56 4 -111 4h-37l-8 -348h-561l-31 784q-8 270 -45 752z" />
<glyph unicode="G" horiz-adv-x="1389" d="M35 745q0 388 247 606q232 205 611 205q143 0 307 -22l55 -631q-66 25 -188 25q-155 0 -280 -95q-140 -107 -140 -272q0 -156 119 -241q95 -68 217 -68h14l-16 201q-6 62 -27 204h424q-10 -85 -30 -321q-10 -141 -19 -334q-134 -39 -391 -39q-382 0 -621 172 q-282 205 -282 610z" />
<glyph unicode="H" horiz-adv-x="1593" d="M41 1536h702l-47 -946q51 -5 99 -5q21 0 41 1q43 1 116 8l-51 942h651q-17 -246 -45 -801q-8 -264 -28 -735h-510l-11 336q-18 -6 -73 -29q-65 -28 -92 -45l-52 123q-16 40 -53 113l-10 -498h-563l-29 735q-9 287 -45 801z" />
<glyph unicode="I" horiz-adv-x="776" d="M41 1536h694l-39 -817q-11 -264 -26 -719h-561z" />
<glyph unicode="J" horiz-adv-x="926" d="M10 299q31 -14 158 -43q37 -6 71 -6q28 0 54 4q-1 100 -31 604q-19 280 -67 678h690q-12 -189 -33 -678q-9 -262 -9 -484q0 -127 3 -241q-219 -166 -484 -166q-144 0 -309 33q-4 41 -18 145q-9 56 -25 154z" />
<glyph unicode="K" horiz-adv-x="1495" d="M41 1536h696l-39 -674h7q42 118 135 389q38 118 98 324l283 -62q138 -30 274 -57q-55 -102 -225 -430q-93 -181 -256 -483q14 -22 162 -185q87 -93 247 -237q-67 -29 -219 -94q-85 -38 -239 -111q-38 46 -156 215q-66 100 -127 213h-4l-10 -344h-553l-27 799 q-11 262 -47 737z" />
<glyph unicode="L" horiz-adv-x="1085" d="M41 1536h694l-57 -1274q97 0 291 21q40 4 110 20q-10 -40 -37 -151q-14 -65 -24 -152h-905q-5 235 -25 774q-13 276 -47 762z" />
<glyph unicode="M" horiz-adv-x="1698" d="M41 1536h573q30 -73 103 -236q56 -116 153 -274q43 68 158 281q41 79 105 229h524q-14 -210 -41 -766q-14 -342 -21 -770h-362l-10 471l-353 -508l-381 504l-10 -467h-360q-7 229 -27 774q-14 314 -51 762z" />
<glyph unicode="N" horiz-adv-x="1311" d="M41 1536h502l372 -352q0 121 -4 190q-3 61 -12 162h371q-14 -202 -39 -705q-15 -370 -25 -851q-131 103 -399 307q-116 81 -346 243l-10 -530h-322q-8 203 -37 766q-25 456 -51 770z" />
<glyph unicode="O" d="M35 801q0 377 195 592q184 202 481 202q292 0 476 -203q195 -216 195 -591q0 -353 -182 -597q-191 -255 -489 -255q-307 0 -497 257q-179 242 -179 595zM530 623q0 -112 48 -209q54 -109 133 -109q77 0 136 111q54 101 54 209q0 278 -188 278q-183 0 -183 -280z" />
<glyph unicode="P" horiz-adv-x="1362" d="M41 1536q156 31 457 31q367 0 588 -147q251 -167 251 -490q0 -284 -181.5 -454.5t-481.5 -170.5l-12 -305h-551l-29 745q-13 288 -41 791zM682 565q240 8 240 197q0 156 -185 156q-22 0 -45 -3z" />
<glyph unicode="Q" d="M35 805q0 379 195 593q183 201 481 201q292 0 476 -203q195 -215 195 -591q0 -246 -90 -445q-96 -213 -268 -299q37 -37 104 -98q92 -70 162 -106q-37 -37 -123 -109q-49 -34 -135 -76q-71 57 -117 115q-54 70 -77 121q22 20 67 86q-97 -41 -194 -41q-307 0 -497 258 q-179 242 -179 594zM530 623q5 -115 50 -209q53 -109 131 -109q77 0 136 111q54 101 54 209q0 278 -184 278q-99 0 -148 -83q-39 -67 -39 -176v-21z" />
<glyph unicode="R" horiz-adv-x="1401" d="M41 1536q275 29 502 29q841 0 841 -604q0 -184 -103 -326q-91 -124 -228 -178q29 -45 143 -189q57 -66 174 -174q-47 -17 -207 -86q-112 -51 -211 -100q-29 36 -129 186q-46 76 -135 256h-2l-10 -350h-563q-11 218 -31 719q-9 295 -41 817zM696 565q83 0 148 37 q86 48 86 143t-80 136q-52 26 -127 26h-21z" />
<glyph unicode="S" horiz-adv-x="1030" d="M33 1104q0 241 180 365q157 108 418 108q148 0 332 -43l30 -627q-74 17 -112 17q-47 0 -86 -32q-47 -39 -47 -101q0 -48 86 -185t86 -252q0 -167 -127 -274q-121 -103 -299 -103q-164 0 -242 23q-9 46 -31 150q-14 56 -39 149q110 -27 148 -27q149 0 149 113 q0 82 -60 147q-98 86 -196 173q-190 168 -190 399z" />
<glyph unicode="T" horiz-adv-x="1280" d="M18 1536h1244l-29 -629q-39 6 -125 15q-53 3 -172 6q-6 -59 -21 -285q-11 -219 -36 -643h-484q-8 202 -30 635q-10 150 -21 293l-158 -6l-143 -15z" />
<glyph unicode="U" horiz-adv-x="1436" d="M33 1536h645q-5 -132 -12 -430q-1 -62 -1 -144q0 -136 3 -327q1 -232 40 -313q41 -86 164 -86q35 0 78 20q0 206 -12 655q-10 225 -37 625h494l-23 -647q-10 -277 -10 -838q-256 -92 -522 -92q-328 0 -499 131q-145 111 -205 346q-35 135 -66 494q-30 332 -37 606z" />
<glyph unicode="V" horiz-adv-x="1339" d="M10 1536h707q10 -95 47 -309q25 -114 78 -314q28 97 82 316q25 118 57 307h348q-83 -246 -266 -803q-84 -262 -217 -733h-348q-67 228 -224 745q-89 286 -264 791z" />
<glyph unicode="W" horiz-adv-x="2111" d="M10 1536h682q21 -98 74 -317l106 -400q29 83 86 289q-47 175 -120 428h620q16 -96 53 -311q27 -143 74 -406l103 408q28 116 65 309h348q-88 -247 -274 -811q-81 -262 -215 -725h-359q-50 210 -180 717q-82 -261 -221 -717h-354q-64 229 -219 748q-91 285 -269 788z" />
<glyph unicode="X" horiz-adv-x="1503" d="M10 1536h688q13 -42 56 -164q26 -70 65 -151q25 43 80 147q32 65 74 168h520q-40 -76 -203 -367q-93 -161 -278 -460l364 -709h-465l-190 313q-124 -190 -197 -313h-409q53 80 233 377q70 120 158 274q-66 108 -213 363q-160 287 -283 522z" />
<glyph unicode="Y" horiz-adv-x="1438" d="M10 1536h738q18 -65 63 -205l96 -270q38 92 103 272q22 71 57 203h358l-188 -348q-76 -143 -205 -400q-12 -140 -31 -397q-6 -137 -20 -391h-512q-4 124 -18 397q-8 103 -37 391q-52 107 -174 347q-79 146 -230 401z" />
<glyph unicode="Z" horiz-adv-x="1290" d="M29 1536h1241l-551 -1231q21 -1 47 -1q88 0 238 15q45 5 124 27q-15 -45 -51 -156q-20 -63 -53 -190h-903l270 940q-36 -2 -137 -8q-74 -5 -203 -25z" />
<glyph unicode="[" horiz-adv-x="856" d="M82 1759h766l-12 -223h-318v-1536h301l-18 -219h-645z" />
<glyph unicode="\" horiz-adv-x="870" d="M23 1577l292 94q69 -238 263 -842q169 -492 325 -927l-203 -54z" />
<glyph unicode="]" horiz-adv-x="856" d="M8 1759h766l-74 -1978h-645l-18 219h301v1536h-318z" />
<glyph unicode="^" horiz-adv-x="1280" d="M246 659q200 175 401 412q128 -165 400 -414l-166 -120q-172 176 -234 266q-80 -122 -235 -264z" />
<glyph unicode="_" horiz-adv-x="1024" d="M0 -102h1024v-232h-1024v232z" />
<glyph unicode="`" horiz-adv-x="1280" d="M383 1812q25 34 78 111q30 46 82 125q55 -56 188 -164q72 -48 201 -123l-43 -80q-15 -22 -41 -67q-66 14 -236 74q-89 38 -229 124z" />
<glyph unicode="a" horiz-adv-x="1260" d="M-16 0q64 247 198 815q82 380 137 721h601q28 -157 153 -731q69 -300 191 -805h-547l-37 133q-23 -9 -115 -61q-59 -38 -131 -101l-57 121q-17 36 -49 101l-54 -193h-290zM358 285q30 0 136 12q64 9 139 31q-17 53 -60 172q-26 66 -79 182q-23 -58 -72 -190 q-27 -76 -64 -207z" />
<glyph unicode="b" horiz-adv-x="1358" d="M41 1536q190 37 481 37q811 0 811 -543q0 -180 -86 -311q-73 -110 -182 -156q70 -30 114 -99t44 -147q0 -194 -207 -284q-160 -70 -420 -70q-224 0 -481 37q-7 233 -29 760q-15 283 -45 776zM686 236q13 -1 24 -1q183 0 183 132q0 116 -166 116q-17 0 -35 -2zM702 694h21 q203 0 203 148q0 77 -62 118q-53 35 -138 35h-9z" />
<glyph unicode="c" horiz-adv-x="1217" d="M35 774q0 344 210 556q224 226 619 226q190 0 275 -22l32 -627q-55 17 -141 17q-160 0 -260 -84q-113 -94 -113 -271q0 -138 89.5 -226.5t234.5 -88.5q99 0 188 49q-10 -41 -34 -151q-14 -73 -27 -152q-112 -43 -287 -43q-317 0 -542 213q-244 232 -244 604z" />
<glyph unicode="d" horiz-adv-x="1442" d="M41 1532q217 31 453 31q421 0 659 -196q254 -210 254 -611q0 -361 -224 -568q-231 -215 -651 -215q-270 0 -417 27l-27 743q-13 286 -47 789zM686 276q128 8 209 83q102 93 102 274q0 147 -95 217q-73 53 -183 53h-19z" />
<glyph unicode="e" horiz-adv-x="1137" d="M41 1536h1051l-43 -633q-37 6 -160 21q-84 8 -184 10l-15 -191q30 -1 70 -1q108 0 289 6q-11 -37 -35 -138q-14 -61 -25 -141q-29 7 -145 18q-40 2 -110 2h-50l-10 -223q75 1 276 13q38 3 125 24q-8 -31 -37 -149q-14 -61 -34 -154h-895l-29 784q-8 269 -39 752z" />
<glyph unicode="f" horiz-adv-x="1118" d="M41 1536h1044l-41 -629q-37 6 -157 17q-72 3 -170 4l-17 -322h23q103 0 295 15q-10 -45 -31 -148q-11 -61 -24 -147q-28 6 -129 18q-56 4 -111 4h-37l-8 -348h-561l-31 784q-8 270 -45 752z" />
<glyph unicode="g" horiz-adv-x="1389" d="M35 745q0 388 247 606q232 205 611 205q143 0 307 -22l55 -631q-66 25 -188 25q-155 0 -280 -95q-140 -107 -140 -272q0 -156 119 -241q95 -68 217 -68h14l-16 201q-6 62 -27 204h424q-10 -85 -30 -321q-10 -141 -19 -334q-134 -39 -391 -39q-382 0 -621 172 q-282 205 -282 610z" />
<glyph unicode="h" horiz-adv-x="1593" d="M41 1536h702l-47 -946q51 -5 99 -5q21 0 41 1q43 1 116 8l-51 942h651q-17 -246 -45 -801q-8 -264 -28 -735h-510l-11 336q-18 -6 -73 -29q-65 -28 -92 -45l-52 123q-16 40 -53 113l-10 -498h-563l-29 735q-9 287 -45 801z" />
<glyph unicode="i" horiz-adv-x="776" d="M41 1536h694l-39 -817q-11 -264 -26 -719h-561z" />
<glyph unicode="j" horiz-adv-x="926" d="M10 299q31 -14 158 -43q37 -6 71 -6q28 0 54 4q-1 100 -31 604q-19 280 -67 678h690q-12 -189 -33 -678q-9 -262 -9 -484q0 -127 3 -241q-219 -166 -484 -166q-144 0 -309 33q-4 41 -18 145q-9 56 -25 154z" />
<glyph unicode="k" horiz-adv-x="1495" d="M41 1536h696l-39 -674h7q42 118 135 389q38 118 98 324l283 -62q138 -30 274 -57q-55 -102 -225 -430q-93 -181 -256 -483q14 -22 162 -185q87 -93 247 -237q-67 -29 -219 -94q-85 -38 -239 -111q-38 46 -156 215q-66 100 -127 213h-4l-10 -344h-553l-27 799 q-11 262 -47 737z" />
<glyph unicode="l" horiz-adv-x="1085" d="M41 1536h694l-57 -1274q97 0 291 21q40 4 110 20q-10 -40 -37 -151q-14 -65 -24 -152h-905q-5 235 -25 774q-13 276 -47 762z" />
<glyph unicode="m" horiz-adv-x="1698" d="M41 1536h573q30 -73 103 -236q56 -116 153 -274q43 68 158 281q41 79 105 229h524q-14 -210 -41 -766q-14 -342 -21 -770h-362l-10 471l-353 -508l-381 504l-10 -467h-360q-7 229 -27 774q-14 314 -51 762z" />
<glyph unicode="n" horiz-adv-x="1311" d="M41 1536h502l372 -352q0 121 -4 190q-3 61 -12 162h371q-14 -202 -39 -705q-15 -370 -25 -851q-131 103 -399 307q-116 81 -346 243l-10 -530h-322q-8 203 -37 766q-25 456 -51 770z" />
<glyph unicode="o" d="M35 801q0 377 195 592q184 202 481 202q292 0 476 -203q195 -216 195 -591q0 -353 -182 -597q-191 -255 -489 -255q-307 0 -497 257q-179 242 -179 595zM530 623q0 -112 48 -209q54 -109 133 -109q77 0 136 111q54 101 54 209q0 278 -188 278q-183 0 -183 -280z" />
<glyph unicode="p" horiz-adv-x="1362" d="M41 1536q156 31 457 31q367 0 588 -147q251 -167 251 -490q0 -284 -181.5 -454.5t-481.5 -170.5l-12 -305h-551l-29 745q-13 288 -41 791zM682 565q240 8 240 197q0 156 -185 156q-22 0 -45 -3z" />
<glyph unicode="q" d="M35 805q0 379 195 593q183 201 481 201q292 0 476 -203q195 -215 195 -591q0 -246 -90 -445q-96 -213 -268 -299q37 -37 104 -98q92 -70 162 -106q-37 -37 -123 -109q-49 -34 -135 -76q-71 57 -117 115q-54 70 -77 121q22 20 67 86q-97 -41 -194 -41q-307 0 -497 258 q-179 242 -179 594zM530 623q5 -115 50 -209q53 -109 131 -109q77 0 136 111q54 101 54 209q0 278 -184 278q-99 0 -148 -83q-39 -67 -39 -176v-21z" />
<glyph unicode="r" horiz-adv-x="1401" d="M41 1536q275 29 502 29q841 0 841 -604q0 -184 -103 -326q-91 -124 -228 -178q29 -45 143 -189q57 -66 174 -174q-47 -17 -207 -86q-112 -51 -211 -100q-29 36 -129 186q-46 76 -135 256h-2l-10 -350h-563q-11 218 -31 719q-9 295 -41 817zM696 565q83 0 148 37 q86 48 86 143t-80 136q-52 26 -127 26h-21z" />
<glyph unicode="s" horiz-adv-x="1030" d="M33 1104q0 241 180 365q157 108 418 108q148 0 332 -43l30 -627q-74 17 -112 17q-47 0 -86 -32q-47 -39 -47 -101q0 -48 86 -185t86 -252q0 -167 -127 -274q-121 -103 -299 -103q-164 0 -242 23q-9 46 -31 150q-14 56 -39 149q110 -27 148 -27q149 0 149 113 q0 82 -60 147q-98 86 -196 173q-190 168 -190 399z" />
<glyph unicode="t" horiz-adv-x="1280" d="M18 1536h1244l-29 -629q-39 6 -125 15q-53 3 -172 6q-6 -59 -21 -285q-11 -219 -36 -643h-484q-8 202 -30 635q-10 150 -21 293l-158 -6l-143 -15z" />
<glyph unicode="u" horiz-adv-x="1436" d="M33 1536h645q-5 -132 -12 -430q-1 -62 -1 -144q0 -136 3 -327q1 -232 40 -313q41 -86 164 -86q35 0 78 20q0 206 -12 655q-10 225 -37 625h494l-23 -647q-10 -277 -10 -838q-256 -92 -522 -92q-328 0 -499 131q-145 111 -205 346q-35 135 -66 494q-30 332 -37 606z" />
<glyph unicode="v" horiz-adv-x="1339" d="M10 1536h707q10 -95 47 -309q25 -114 78 -314q28 97 82 316q25 118 57 307h348q-83 -246 -266 -803q-84 -262 -217 -733h-348q-67 228 -224 745q-89 286 -264 791z" />
<glyph unicode="w" horiz-adv-x="2111" d="M10 1536h682q21 -98 74 -317l106 -400q29 83 86 289q-47 175 -120 428h620q16 -96 53 -311q27 -143 74 -406l103 408q28 116 65 309h348q-88 -247 -274 -811q-81 -262 -215 -725h-359q-50 210 -180 717q-82 -261 -221 -717h-354q-64 229 -219 748q-91 285 -269 788z" />
<glyph unicode="x" horiz-adv-x="1503" d="M10 1536h688q13 -42 56 -164q26 -70 65 -151q25 43 80 147q32 65 74 168h520q-40 -76 -203 -367q-93 -161 -278 -460l364 -709h-465l-190 313q-124 -190 -197 -313h-409q53 80 233 377q70 120 158 274q-66 108 -213 363q-160 287 -283 522z" />
<glyph unicode="y" horiz-adv-x="1438" d="M10 1536h738q18 -65 63 -205l96 -270q38 92 103 272q22 71 57 203h358l-188 -348q-76 -143 -205 -400q-12 -140 -31 -397q-6 -137 -20 -391h-512q-4 124 -18 397q-8 103 -37 391q-52 107 -174 347q-79 146 -230 401z" />
<glyph unicode="z" horiz-adv-x="1290" d="M29 1536h1241l-551 -1231q21 -1 47 -1q88 0 238 15q45 5 124 27q-15 -45 -51 -156q-20 -63 -53 -190h-903l270 940q-36 -2 -137 -8q-74 -5 -203 -25z" />
<glyph unicode="{" horiz-adv-x="860" d="M41 616v289q173 0 186 178q17 225 17 226q16 140 55 237q94 234 406 234q51 0 94 -6v-388q-33 17 -80 17q-62 0 -85 -55q-16 -38 -24 -148q-11 -172 -44 -255q-49 -127 -173 -183q125 -55 173 -177q33 -82 44 -251q8 -108 24 -147q23 -54 85 -54q47 0 80 17v-398 q-57 -6 -99 -6q-304 0 -399 234q-39 97 -55 235q0 2 -17 227q-12 178 -163 178q-22 0 -25 -4z" />
<glyph unicode="|" horiz-adv-x="420" d="M53 1774h314l-48 -2018h-217z" />
<glyph unicode="}" horiz-adv-x="860" d="M61 150q33 -17 80 -17q62 0 85 55q16 38 24 148q11 169 44 251q49 122 173 179q-124 55 -173 181q-33 83 -44 255q-7 108 -24 147q-23 54 -85 54q-47 0 -80 -17v388q41 6 91 6q314 0 409 -234q40 -97 55 -237q9 -113 17 -226q13 -178 186 -178v-289q-3 4 -25 4 q-150 0 -163 -178q-16 -225 -17 -227q-15 -138 -55 -235q-93 -230 -401 -234q-54 -1 -97 6v398z" />
<glyph unicode="~" horiz-adv-x="1280" d="M133 717q122 184 277 184q69 0 255.5 -48t190.5 -48q76 -4 123 84l168 -119q-120 -180 -275 -180q-79 0 -257.5 46t-188.5 46q-75 0 -125 -82z" />
<glyph unicode="&#xa1;" horiz-adv-x="889" d="M133 0q56 237 115 541q29 138 58 277q32 155 32 211q0 16 -2 26q5 1 106 12q58 7 123 18q24 -163 84 -534q35 -169 107 -551h-623zM244 1382q0 78 66.5 131.5t154.5 53.5q94 0 161.5 -53.5t67.5 -133.5q0 -81 -65.5 -132.5t-163.5 -51.5q-90 0 -154 51q-67 54 -67 135z " />
<glyph unicode="&#xa2;" horiz-adv-x="840" d="M49 748q0 146 78 270q84 133 231 192l-10 254h295l-8 -213q100 0 131 -10l18 -432q-53 6 -79 6q-87 0 -141 -52t-54 -136q0 -61 41 -107q48 -53 125 -53q64 0 108 16q-9 -36 -26 -114q-4 -40 -15 -111q-58 -20 -147 -20l-10 -191h-189l-8 227q-149 53 -239 169 q-101 128 -101 305z" />
<glyph unicode="&#xa3;" horiz-adv-x="915" d="M43 1106q-3 202 155 334q149 125 357 125q160 0 313 -47l-57 -502q-67 49 -141 49q-133 0 -133 -152q0 -13 26 -159h201l-27 -183h-141l5 -91l-9 -52q-21 -78 -113 -143h127q67 0 123 12q34 7 92 29l-57 -328h-629l-43 281q84 -2 152 42q77 51 77 132q0 53 -53 118h-159 l-31 179h117q-44 57 -75 113q-76 135 -77 243z" />
<glyph unicode="&#xa4;" horiz-adv-x="1221" d="M142 349l177 178v395l-177 177l118 118l194 -194h330l193 194l118 -118l-177 -178v-395l177 -177l-118 -118l-194 194h-330l-193 -194zM483 573l271 1v302h-271v-303z" />
<glyph unicode="&#xa5;" horiz-adv-x="1438" d="M10 1536h738q20 -65 69 -205q33 -89 96 -270q36 92 99 272q22 71 51 203h364q-61 -107 -194 -348q-76 -143 -201 -400v-2h207l-27 -180h-196q-3 -52 -10 -131h241l-26 -180h-226l-14 -295h-512q-2 78 -12 293h-240l-33 182h260l-12 129h-223l-33 182h238v2 q-52 107 -174 347q-79 146 -230 401z" />
<glyph unicode="&#xa6;" horiz-adv-x="420" d="M53 1774h314l-18 -742h-279zM82 553h255l-18 -797h-217z" />
<glyph unicode="&#xa7;" horiz-adv-x="967" d="M41 608q-1 131 114 236q49 45 115 78q-143 143 -141 309q2 149 104 239q121 105 363 105q150 0 293 -59l-72 -379q-41 25 -125 53q-110 5 -114 -76q-2 -30 87 -102q117 -94 168 -163q90 -122 89 -274q-1 -129 -116 -235q-49 -45 -114 -78q40 -38 80 -77q74 -93 74 -205 q0 -178 -146 -283q-138 -99 -333 -88q-151 8 -293 59l71 381q41 -26 125 -55q111 -7 115 78q1 30 -87 100q-115 93 -166 161q-90 122 -91 275zM381 657q-2 -51 48 -107l116 -116q17 29 20 35q11 27 13 70q2 49 -46 106q-55 61 -110 121q-26 -31 -31 -44q-8 -19 -10 -65z" />
<glyph unicode="&#xa8;" horiz-adv-x="1280" d="M291 1786q0 61 42 104t103 43q63 0 106.5 -43t43.5 -104q0 -63 -44 -105.5t-108 -42.5q-60 0 -101.5 43t-41.5 105zM692 1786q0 61 42 104t104 43t105.5 -43t43.5 -104q0 -63 -44 -105.5t-107 -42.5q-60 0 -102 43t-42 105z" />
<glyph unicode="&#xa9;" horiz-adv-x="1673" d="M61 776q0 321 227.5 547.5t549.5 226.5q321 0 547.5 -226.5t226.5 -547.5t-227 -548.5t-547 -227.5q-321 0 -549 227.5t-228 548.5zM150 774q0 -284 200.5 -485t485.5 -201q284 0 486 201t202 485t-202 486t-486 202t-485 -202t-201 -486zM443 780q0 207 131 334 q140 135 387 135q102 0 170 -12l21 -377q-47 10 -87 10q-101 0 -163 -50q-71 -57 -71 -163q0 -82 56 -135t146 -53q61 0 117 29q-6 -25 -21 -90q-9 -44 -17 -93q-70 -24 -179 -24q-197 0 -338 128q-152 139 -152 361z" />
<glyph unicode="&#xaa;" horiz-adv-x="715" d="M61 858q47 169 95 375q52 220 61 301h277q19 -102 69 -317q41 -168 90 -359h-254l-16 60q-41 -18 -113 -72q-17 37 -49 98l-24 -86h-136zM236 983q36 -2 124 21q-22 73 -61 155h-4q-30 -73 -59 -176z" />
<glyph unicode="&#xab;" horiz-adv-x="1169" d="M109 733q55 86 174 279q46 77 127 233l196 -110l-229 -402l231 -407l-196 -111q-43 82 -140 254q-55 93 -163 264zM557 733q55 86 172 279q45 78 127 233l197 -110l-230 -402l232 -407l-197 -111q-43 82 -139 254q-55 93 -162 264z" />
<glyph unicode="&#xac;" horiz-adv-x="942" d="M119 624v124h704v-416h-124v292h-580z" />
<glyph unicode="&#xad;" horiz-adv-x="850" d="M123 657h604l-45 -305h-510z" />
<glyph unicode="&#xae;" horiz-adv-x="895" d="M41 1139q0 168 119 286.5t289 118.5q168 0 286.5 -118t118.5 -287t-118.5 -288.5t-286.5 -119.5q-169 0 -288.5 119.5t-119.5 288.5zM88 1137q0 -149 104.5 -254t253.5 -105q150 0 256.5 105t106.5 254t-107 255.5t-256 106.5q-148 0 -253 -106.5t-105 -255.5zM274 1360 q86 8 154 8q254 0 254 -178q0 -111 -100 -148q27 -44 96 -106q-74 -34 -127 -55q-50 62 -74 131h-6l-4 -105h-170q-3 66 -8 213q-2 88 -15 240zM473 1075q72 2 72 51q0 50 -70 48z" />
<glyph unicode="&#xaf;" horiz-adv-x="1280" d="M133 1831h1014l-31 -193h-950z" />
<glyph unicode="&#xb0;" horiz-adv-x="719" d="M102 1327q0 107 75 181.5t181 74.5q108 0 183 -74.5t75 -181.5t-75 -180.5t-183 -73.5q-106 0 -181 73.5t-75 180.5zM268 1327q0 -40 26 -69t64 -29q40 0 67.5 28.5t27.5 67.5q0 40 -27 66t-66 26t-65.5 -25.5t-26.5 -64.5z" />
<glyph unicode="&#xb1;" horiz-adv-x="838" d="M68 190v123h704v-123h-704zM70 650v114h290v264h119v-264h289v-114h-289v-254h-119v254h-290z" />
<glyph unicode="&#xb2;" horiz-adv-x="754" d="M35 1114l39 391q116 39 258 39q180 0 287.5 -87t107.5 -230q0 -150 -146 -344q-55 -72 -196 -217h111q78 0 186 14q-13 -36 -39 -113q-11 -36 -33 -110h-514l-41 80q126 189 167 271q59 116 59 208q0 63 -45 97q-36 28 -89 28q-51 0 -112 -27z" />
<glyph unicode="&#xb3;" horiz-adv-x="805" d="M41 1137l33 364q129 43 299 43q174 0 284 -82q113 -85 113 -227q0 -235 -231 -336v-4q151 -62 151 -203q0 -124 -102 -193q-92 -63 -236 -63q-127 0 -168 10l-28 107q-10 36 -35 115q100 -29 158 -29q52 0 85 26.5t33 65.5q0 37 -33 63q-37 29 -105 29q-16 0 -34 -2 l-32 156q129 12 129 104q0 84 -113 84q-82 0 -168 -28z" />
<glyph unicode="&#xb4;" horiz-adv-x="1280" d="M367 1761q61 36 200 123q75 49 189 164l82 -125q26 -40 77 -111q-67 -42 -227 -124q-91 -41 -235 -74l-41 67q-17 29 -45 80z" />
<glyph unicode="&#xb6;" horiz-adv-x="1507" d="M49 815q0 387 311 587q255 165 627 165q179 0 395 -31l-41 -791q-6 -142 -24 -876q50 1 145 20q-15 -62 -45 -213l-506 -2q-12 359 -32 500q-349 0 -576 156q-254 174 -254 485zM689 715q0 -350 181 -357l-28 619q-153 4 -153 -262z" />
<glyph unicode="&#xb7;" horiz-adv-x="696" d="M123 823q0 82 65 133.5t162 51.5q91 0 156 -51q67 -54 67 -136q0 -78 -66.5 -131t-156.5 -53q-94 0 -160.5 53t-66.5 133z" />
<glyph unicode="&#xb8;" horiz-adv-x="1280" d="M446 -299q23 17 95 137q37 78 37 180l231 -137q-14 -47 -76 -166q-55 -81 -155 -131q-23 23 -60 58q-21 18 -72 59z" />
<glyph unicode="&#xb9;" horiz-adv-x="680" d="M10 1348q305 114 508 213l84 -43q-15 -264 -24 -1061h-361q2 204 -4 389q-3 123 -8 284q-36 -5 -115 -26z" />
<glyph unicode="&#xba;" horiz-adv-x="745" d="M61 1210q0 167 90 261q84 90 222 90q135 0 221 -90q90 -96 90 -261q0 -155 -85 -262q-89 -112 -226 -112q-142 0 -230 112q-82 106 -82 262zM291 1133q0 -50 22 -93q24 -49 60 -49t63 49q25 45 25 93q0 122 -86 122q-84 0 -84 -122z" />
<glyph unicode="&#xbb;" horiz-adv-x="1169" d="M113 1135l198 110q40 -74 129 -233q58 -99 172 -279q-53 -82 -163 -264q-49 -84 -140 -254l-194 111l229 407zM563 326l230 407l-230 402l197 110q39 -74 129 -233q58 -99 172 -279q-52 -82 -164 -264q-49 -84 -139 -254z" />
<glyph unicode="&#xbc;" horiz-adv-x="2087" d="M10 1348q305 114 508 213l84 -43q-15 -264 -24 -1061h-361q2 204 -4 389q-3 123 -8 284q-36 -5 -115 -26zM367 -53q102 177 522 927q188 339 443 842l262 -139l-1045 -1729zM1099 178q192 305 192 555q0 22 -1 46.5t-1 25.5h209q-4 127 -12 270h409l-30 -731h4 q85 0 161 18l-30 -94q-11 -34 -27 -96h-108q-2 -95 -2 -172h-340q0 75 -5 172h-417zM1402 346h119q-1 77 -3 217h-4q-59 -144 -112 -217z" />
<glyph unicode="&#xbd;" horiz-adv-x="2110" d="M10 1348q305 114 508 213l84 -43q-15 -264 -24 -1061h-361q2 204 -4 389q-3 123 -8 284q-36 -5 -115 -26zM367 -53q102 177 522 927q188 339 443 842l262 -139l-1045 -1729zM1347 657l39 392q116 38 258 38q180 0 287.5 -86.5t107.5 -230.5q0 -150 -146 -343 q-55 -72 -196 -218h111q78 0 186 14q-13 -36 -39 -112l-33 -111h-514l-41 80q126 190 167 271q59 117 59 208q0 63 -45 97q-36 28 -89 28q-51 0 -112 -27z" />
<glyph unicode="&#xbe;" horiz-adv-x="2087" d="M41 1137l33 364q129 43 299 43q174 0 284 -82q113 -85 113 -227q0 -235 -231 -336v-4q151 -62 151 -203q0 -124 -102 -193q-92 -63 -236 -63q-127 0 -168 10l-28 107q-10 36 -35 115q100 -29 158 -29q52 0 85 26.5t33 65.5q0 37 -33 63q-37 29 -105 29q-16 0 -34 -2 l-32 156q129 12 129 104q0 84 -113 84q-82 0 -168 -28zM421 -53q102 177 522 927q188 339 443 842l262 -139l-1045 -1729zM1099 178q192 305 192 555q0 22 -1 46.5t-1 25.5h209q-4 127 -12 270h409l-30 -731h4q85 0 161 18l-30 -94q-11 -34 -27 -96h-108q-2 -95 -2 -172 h-340q0 75 -5 172h-417zM1402 346h119q-1 77 -3 217h-4q-59 -144 -112 -217z" />
<glyph unicode="&#xbf;" horiz-adv-x="1012" d="M82 358q0 121 95 246q36 47 177 187q148 145 148 192q0 48 -21 78q51 7 131 20q95 21 138 41q26 -62 26 -127q0 -94 -62.5 -211t-62.5 -178q0 -56 39 -92.5t94 -36.5q76 0 156 43l-31 -526q-135 -45 -293 -45q-534 0 -534 409zM375 1374q0 79 68 133q65 52 153 52 q95 0 163 -53t68 -134t-66.5 -132.5t-164.5 -51.5q-89 0 -155 53.5t-66 132.5z" />
<glyph unicode="&#xc0;" horiz-adv-x="1260" d="M-16 0q64 247 198 815q82 380 137 721h601q28 -157 153 -731q69 -300 191 -805h-547l-37 133q-23 -9 -115 -61q-59 -38 -131 -101l-57 121q-17 36 -49 101l-54 -193h-290zM358 285q30 0 136 12q64 9 139 31q-17 53 -60 172q-26 66 -79 182q-23 -58 -72 -190 q-27 -76 -64 -207zM371 1828q25 34 78 111q30 46 82 125q55 -56 188 -164q72 -48 201 -123l-43 -80q-15 -22 -41 -67q-66 14 -236 74q-89 38 -229 124z" />
<glyph unicode="&#xc1;" horiz-adv-x="1260" d="M-16 0q64 247 198 815q82 380 137 721h601q28 -157 153 -731q69 -300 191 -805h-547l-37 133q-23 -9 -115 -61q-59 -38 -131 -101l-57 121q-17 36 -49 101l-54 -193h-290zM353 1771q61 36 200 123q75 49 189 164l82 -125q26 -40 77 -111q-67 -42 -227 -124 q-91 -41 -235 -74l-41 67q-17 29 -45 80zM358 285q30 0 136 12q64 9 139 31q-17 53 -60 172q-26 66 -79 182q-23 -58 -72 -190q-27 -76 -64 -207z" />
<glyph unicode="&#xc2;" horiz-adv-x="1260" d="M-16 0q64 247 198 815q82 380 137 721h601q28 -157 153 -731q69 -300 191 -805h-547l-37 133q-23 -9 -115 -61q-59 -38 -131 -101l-57 121q-17 36 -49 101l-54 -193h-290zM246 1824q61 24 205 90q72 38 184 115q56 -38 186 -115q78 -41 205 -90l-74 -194l-161 74 q-54 24 -156 79q-43 -25 -145 -79q-71 -33 -170 -74zM358 285q30 0 136 12q64 9 139 31q-17 53 -60 172q-26 66 -79 182q-23 -58 -72 -190q-27 -76 -64 -207z" />
<glyph unicode="&#xc3;" horiz-adv-x="1260" d="M-16 0q64 247 198 815q82 380 137 721h601q28 -157 153 -731q69 -300 191 -805h-547l-37 133q-23 -9 -115 -61q-59 -38 -131 -101l-57 121q-17 36 -49 101l-54 -193h-290zM236 1708q29 100 98 171q75 77 160 77q90 0 180 -40t125 -40q52 0 76 76l151 -78 q-70 -240 -237 -240q-59 0 -153.5 37t-151.5 37q-61 0 -82 -70zM358 285q30 0 136 12q64 9 139 31q-17 53 -60 172q-26 66 -79 182q-23 -58 -72 -190q-27 -76 -64 -207z" />
<glyph unicode="&#xc4;" horiz-adv-x="1260" d="M-16 0q64 247 198 815q82 380 137 721h601q28 -157 153 -731q69 -300 191 -805h-547l-37 133q-23 -9 -115 -61q-59 -38 -131 -101l-57 121q-17 36 -49 101l-54 -193h-290zM275 1776q0 61 42 104t103 43q63 0 106.5 -43t43.5 -104q0 -63 -44 -105.5t-108 -42.5 q-60 0 -101.5 43t-41.5 105zM358 285q30 0 136 12q64 9 139 31q-17 53 -60 172q-26 66 -79 182q-23 -58 -72 -190q-27 -76 -64 -207zM676 1776q0 61 42 104t104 43t105.5 -43t43.5 -104q0 -63 -44 -105.5t-107 -42.5q-60 0 -102 43t-42 105z" />
<glyph unicode="&#xc5;" horiz-adv-x="1260" d="M-16 0q64 247 198 815q82 380 137 721h601q28 -157 153 -731q69 -300 191 -805h-547l-37 133q-23 -9 -115 -61q-59 -38 -131 -101l-57 121q-17 36 -49 101l-54 -193h-290zM358 285q30 0 136 12q64 9 139 31q-17 53 -60 172q-26 66 -79 182q-23 -58 -72 -190 q-27 -76 -64 -207zM385 1872q0 103 74 175t178 72q102 0 175 -72t73 -175t-73 -175.5t-175 -72.5q-103 0 -177.5 72.5t-74.5 175.5zM551 1872q0 -33 25.5 -59.5t60.5 -26.5q33 0 57.5 27t24.5 59q0 31 -24.5 58.5t-57.5 27.5q-35 0 -60.5 -27t-25.5 -59z" />
<glyph unicode="&#xc6;" horiz-adv-x="1647" d="M-43 0q92 222 301 754q89 230 293 782h1051l-43 -633q-39 5 -160 17q-78 5 -178 4l-15 -181q109 -7 353 5q-10 -37 -35 -138q-15 -61 -25 -141q-29 7 -145 18q-54 3 -154 2l-10 -223q74 0 270 13q112 11 125 24q-8 -31 -37 -149q-14 -61 -35 -154h-895l-10 121 q-26 -14 -86 -49q-59 -38 -114 -101q-18 35 -58 121q-16 37 -49 101l-53 -193h-291zM340 285q26 3 127 12q59 4 139 31q-2 69 -10 221l-18 305q-68 -146 -162 -367q-27 -76 -76 -202z" />
<glyph unicode="&#xc7;" horiz-adv-x="1217" d="M35 774q0 344 210 556q224 226 619 226q190 0 275 -22l32 -627q-55 17 -141 17q-160 0 -260 -84q-113 -94 -113 -271q0 -138 89.5 -226.5t234.5 -88.5q99 0 188 49q-10 -41 -34 -151q-14 -73 -27 -152q-112 -43 -287 -43q-317 0 -542 213q-244 232 -244 604zM597 -299 q23 17 95 137q37 78 37 180l231 -137q-14 -47 -76 -166q-55 -81 -155 -131q-23 23 -60 58q-21 18 -72 59z" />
<glyph unicode="&#xc8;" horiz-adv-x="1137" d="M41 1536h1051l-43 -633q-37 6 -160 21q-84 8 -184 10l-15 -191q110 -3 359 5q-11 -37 -35 -138q-14 -61 -25 -141q-29 7 -145 18q-54 3 -160 2l-10 -223q75 1 276 13q38 3 125 24q-8 -31 -37 -149q-14 -61 -34 -154h-895l-29 784q-8 269 -39 752zM313 1822q25 34 78 111 q30 46 82 125q55 -56 188 -164q72 -48 201 -123l-43 -80q-15 -22 -41 -67q-66 14 -236 74q-89 38 -229 124z" />
<glyph unicode="&#xc9;" horiz-adv-x="1137" d="M41 1536h1051l-43 -633q-37 6 -160 21q-84 8 -184 10l-15 -191q110 -3 359 5q-11 -37 -35 -138q-14 -61 -25 -141q-29 7 -145 18q-54 3 -160 2l-10 -223q75 1 276 13q38 3 125 24q-8 -31 -37 -149q-14 -61 -34 -154h-895l-29 784q-8 269 -39 752zM334 1775q61 36 200 123 q75 49 189 164l82 -125q26 -40 77 -111q-67 -42 -227 -124q-91 -41 -235 -74l-41 67q-17 29 -45 80z" />
<glyph unicode="&#xca;" horiz-adv-x="1137" d="M41 1536h1051l-43 -633q-37 6 -160 21q-84 8 -184 10l-15 -191q110 -3 359 5q-11 -37 -35 -138q-14 -61 -25 -141q-29 7 -145 18q-54 3 -160 2l-10 -223q75 1 276 13q38 3 125 24q-8 -31 -37 -149q-14 -61 -34 -154h-895l-29 784q-8 269 -39 752zM197 1822q61 24 205 90 q72 38 184 115q56 -38 186 -115q78 -41 205 -90l-74 -194l-161 74q-54 24 -156 79q-43 -25 -145 -79q-71 -33 -170 -74z" />
<glyph unicode="&#xcb;" horiz-adv-x="1137" d="M41 1536h1051l-43 -633q-37 6 -160 21q-84 8 -184 10l-15 -191q110 -3 359 5q-11 -37 -35 -138q-14 -61 -25 -141q-29 7 -145 18q-54 3 -160 2l-10 -223q75 1 276 13q38 3 125 24q-8 -31 -37 -149q-14 -61 -34 -154h-895l-29 784q-8 269 -39 752zM232 1770q0 61 42 104 t103 43q63 0 106.5 -43t43.5 -104q0 -63 -44 -105.5t-108 -42.5q-60 0 -101.5 43t-41.5 105zM633 1770q0 61 42 104t104 43t105.5 -43t43.5 -104q0 -63 -44 -105.5t-107 -42.5q-60 0 -102 43t-42 105z" />
<glyph unicode="&#xcc;" horiz-adv-x="776" d="M41 1536h694l-39 -817q-11 -264 -26 -719h-561zM123 1824q25 34 78 111q30 46 82 125q55 -56 188 -164q72 -48 201 -123l-43 -80q-15 -22 -41 -67q-66 14 -236 74q-89 38 -229 124z" />
<glyph unicode="&#xcd;" horiz-adv-x="776" d="M41 1536h694l-39 -817q-11 -264 -26 -719h-561zM107 1771q61 36 200 123q75 49 189 164l82 -125q26 -40 77 -111q-67 -42 -227 -124q-91 -41 -235 -74l-41 67q-17 29 -45 80z" />
<glyph unicode="&#xce;" horiz-adv-x="776" d="M0 1794q61 24 205 90q72 38 184 115q56 -38 186 -115q78 -41 205 -90l-74 -194l-161 74q-54 24 -156 79q-43 -25 -145 -79q-71 -33 -170 -74zM41 1536h694l-39 -817q-11 -264 -26 -719h-561z" />
<glyph unicode="&#xcf;" horiz-adv-x="776" d="M41 1536h694l-39 -817q-11 -264 -26 -719h-561zM43 1770q0 61 42 104t103 43q63 0 106.5 -43t43.5 -104q0 -63 -44 -105.5t-108 -42.5q-60 0 -101.5 43t-41.5 105zM444 1770q0 61 42 104t104 43t105.5 -43t43.5 -104q0 -63 -44 -105.5t-107 -42.5q-60 0 -102 43t-42 105z " />
<glyph unicode="&#xd0;" horiz-adv-x="1516" d="M31 631l867 -2l-21 -178l-821 3l-3 -3zM119 1532q217 31 453 31q421 0 659 -196q254 -210 254 -611q0 -361 -224 -568q-231 -215 -651 -215q-270 0 -417 27l-27 743q-13 286 -47 789zM764 276q128 8 209 83q102 93 102 274q0 147 -95 217q-79 58 -202 53z" />
<glyph unicode="&#xd1;" horiz-adv-x="1311" d="M41 1536h502l372 -352q0 121 -4 190q-3 61 -12 162h371q-14 -202 -39 -705q-15 -370 -25 -851q-131 103 -399 307q-116 81 -346 243l-10 -530h-322q-8 203 -37 766q-25 456 -51 770zM246 1708q29 100 98 171q75 77 160 77q90 0 180 -40t125 -40q52 0 76 76l151 -78 q-70 -240 -237 -240q-59 0 -153.5 37t-151.5 37q-61 0 -82 -70z" />
<glyph unicode="&#xd2;" d="M35 801q0 377 195 592q184 202 481 202q292 0 476 -203q195 -216 195 -591q0 -353 -182 -597q-191 -255 -489 -255q-307 0 -497 257q-179 242 -179 595zM424 1832q25 34 78 111q30 46 82 125q55 -56 188 -164q72 -48 201 -123l-43 -80q-15 -22 -41 -67q-66 14 -236 74 q-89 38 -229 124zM530 623q0 -112 48 -209q54 -109 133 -109q77 0 136 111q54 101 54 209q0 278 -188 278q-183 0 -183 -280z" />
<glyph unicode="&#xd3;" d="M35 801q0 377 195 592q184 202 481 202q292 0 476 -203q195 -216 195 -591q0 -353 -182 -597q-191 -255 -489 -255q-307 0 -497 257q-179 242 -179 595zM424 1781q61 36 200 123q75 49 189 164l82 -125q26 -40 77 -111q-67 -42 -227 -124q-91 -41 -235 -74l-41 67 q-17 29 -45 80zM530 623q0 -112 48 -209q54 -109 133 -109q77 0 136 111q54 101 54 209q0 278 -188 278q-183 0 -183 -280z" />
<glyph unicode="&#xd4;" d="M35 801q0 377 195 592q184 202 481 202q292 0 476 -203q195 -216 195 -591q0 -353 -182 -597q-191 -255 -489 -255q-307 0 -497 257q-179 242 -179 595zM320 1824q61 24 205 90q72 38 184 115q56 -38 186 -115q78 -41 205 -90l-74 -194l-161 74q-54 24 -156 79 q-43 -25 -145 -79q-71 -33 -170 -74zM530 623q0 -112 48 -209q54 -109 133 -109q77 0 136 111q54 101 54 209q0 278 -188 278q-183 0 -183 -280z" />
<glyph unicode="&#xd5;" d="M35 801q0 377 195 592q184 202 481 202q292 0 476 -203q195 -216 195 -591q0 -353 -182 -597q-191 -255 -489 -255q-307 0 -497 257q-179 242 -179 595zM307 1722q29 100 98 171q75 77 160 77q90 0 180 -40t125 -40q52 0 76 76l151 -78q-70 -240 -237 -240 q-59 0 -153.5 37t-151.5 37q-61 0 -82 -70zM530 623q0 -112 48 -209q54 -109 133 -109q77 0 136 111q54 101 54 209q0 278 -188 278q-183 0 -183 -280z" />
<glyph unicode="&#xd6;" d="M35 801q0 377 195 592q184 202 481 202q292 0 476 -203q195 -216 195 -591q0 -353 -182 -597q-191 -255 -489 -255q-307 0 -497 257q-179 242 -179 595zM357 1786q0 61 42 104t103 43q63 0 106.5 -43t43.5 -104q0 -63 -44 -105.5t-108 -42.5q-60 0 -101.5 43t-41.5 105z M530 623q0 -112 48 -209q54 -109 133 -109q77 0 136 111q54 101 54 209q0 278 -188 278q-183 0 -183 -280zM758 1786q0 61 42 104t104 43t105.5 -43t43.5 -104q0 -63 -44 -105.5t-107 -42.5q-60 0 -102 43t-42 105z" />
<glyph unicode="&#xd7;" horiz-adv-x="1108" d="M168 550l205 197l-176 189l142 199l204 -218l205 203l186 -200l-217 -191l210 -224l-206 -131l-185 198l-213 -188z" />
<glyph unicode="&#xd8;" d="M35 801q0 377 195 592q184 202 481 202q292 0 476 -203q195 -216 195 -591q0 -353 -182 -597q-191 -255 -489 -255q-307 0 -497 257q-179 242 -179 595zM227 -111l987 1737l136 -74l-1004 -1732zM530 623q0 -112 48 -209q54 -109 133 -109q77 0 136 111q54 101 54 209 q0 278 -188 278q-183 0 -183 -280z" />
<glyph unicode="&#xd9;" horiz-adv-x="1436" d="M33 1536h645q-5 -132 -12 -430q-3 -166 2 -471q1 -232 40 -313q41 -86 164 -86q35 0 78 20q0 206 -12 655q-10 225 -37 625h494l-23 -647q-10 -277 -10 -838q-256 -92 -522 -92q-328 0 -499 131q-145 111 -205 346q-35 135 -66 494q-30 332 -37 606zM508 1824 q25 34 78 111q30 46 82 125q55 -56 188 -164q72 -48 201 -123l-43 -80q-15 -22 -41 -67q-66 14 -236 74q-89 38 -229 124z" />
<glyph unicode="&#xda;" horiz-adv-x="1436" d="M33 1536h645q-5 -132 -12 -430q-3 -166 2 -471q1 -232 40 -313q41 -86 164 -86q35 0 78 20q0 206 -12 655q-10 225 -37 625h494l-23 -647q-10 -277 -10 -838q-256 -92 -522 -92q-328 0 -499 131q-145 111 -205 346q-35 135 -66 494q-30 332 -37 606zM562 1784 q61 36 200 123q75 49 189 164l82 -125q26 -40 77 -111q-67 -42 -227 -124q-91 -41 -235 -74l-41 67q-17 29 -45 80z" />
<glyph unicode="&#xdb;" horiz-adv-x="1436" d="M33 1536h645q-5 -132 -12 -430q-3 -166 2 -471q1 -232 40 -313q41 -86 164 -86q35 0 78 20q0 206 -12 655q-10 225 -37 625h494l-23 -647q-10 -277 -10 -838q-256 -92 -522 -92q-328 0 -499 131q-145 111 -205 346q-35 135 -66 494q-30 332 -37 606zM359 1833 q61 24 205 90q72 38 184 115q56 -38 186 -115q78 -41 205 -90l-74 -194l-161 74q-54 24 -156 79q-43 -25 -145 -79q-71 -33 -170 -74z" />
<glyph unicode="&#xdc;" horiz-adv-x="1436" d="M33 1536h645q-5 -132 -12 -430q-3 -166 2 -471q1 -232 40 -313q41 -86 164 -86q35 0 78 20q0 206 -12 655q-10 225 -37 625h494l-23 -647q-10 -277 -10 -838q-256 -92 -522 -92q-328 0 -499 131q-145 111 -205 346q-35 135 -66 494q-30 332 -37 606zM418 1774 q0 61 42 104t103 43q63 0 106.5 -43t43.5 -104q0 -63 -44 -105.5t-108 -42.5q-60 0 -101.5 43t-41.5 105zM819 1774q0 61 42 104t104 43t105.5 -43t43.5 -104q0 -63 -44 -105.5t-107 -42.5q-60 0 -102 43t-42 105z" />
<glyph unicode="&#xdd;" horiz-adv-x="1438" d="M10 1536h738q18 -65 63 -205l96 -270q38 92 103 272q22 71 57 203h358l-188 -348q-76 -143 -205 -400q-12 -140 -31 -397q-6 -137 -20 -391h-512q-4 124 -18 397q-8 103 -37 391q-52 107 -174 347q-79 146 -230 401zM623 1779q61 36 200 123q75 49 189 164l82 -125 q26 -40 77 -111q-67 -42 -227 -124q-91 -41 -235 -74l-41 67q-17 29 -45 80z" />
<glyph unicode="&#xde;" horiz-adv-x="1362" d="M41 1536h694q-2 -51 -6 -123q602 -80 602 -620q0 -281 -179 -451.5t-476 -173.5l-4 -168h-563l-29 719q-11 285 -39 817zM686 442q86 0 125 13q104 35 104 151q0 161 -194 161q-14 0 -25 -1l-2 -45q-4 -94 -8 -279z" />
<glyph unicode="&#xdf;" horiz-adv-x="2057" d="M33 1104q0 241 180 365q157 108 418 108q148 0 332 -43l30 -627q-74 17 -112 17q-47 0 -86 -32q-47 -39 -47 -101q0 -48 86 -185t86 -252q0 -167 -127 -274q-121 -103 -299 -103q-164 0 -242 23q-9 46 -31 150q-14 56 -39 149q110 -27 148 -27q149 0 149 113 q0 82 -60 147q-98 86 -196 173q-190 168 -190 399zM1059 1104q0 241 180 365q157 108 418 108q148 0 332 -43l30 -627q-74 17 -112 17q-47 0 -86 -32q-47 -39 -47 -101q0 -48 86 -185t86 -252q0 -167 -127 -274q-121 -103 -299 -103q-164 0 -242 23q-9 46 -31 150 q-14 56 -39 149q110 -27 148 -27q149 0 149 113q0 82 -60 147q-98 86 -196 173q-190 168 -190 399z" />
<glyph unicode="&#xe0;" horiz-adv-x="1260" d="M-16 0q64 247 198 815q82 380 137 721h601q28 -157 153 -731q69 -300 191 -805h-547l-37 133q-23 -9 -115 -61q-59 -38 -131 -101l-57 121q-17 36 -49 101l-54 -193h-290zM358 285q30 0 136 12q64 9 139 31q-17 53 -60 172q-26 66 -79 182q-23 -58 -72 -190 q-27 -76 -64 -207zM371 1828q25 34 78 111q30 46 82 125q55 -56 188 -164q72 -48 201 -123l-43 -80q-15 -22 -41 -67q-66 14 -236 74q-89 38 -229 124z" />
<glyph unicode="&#xe1;" horiz-adv-x="1260" d="M-16 0q64 247 198 815q82 380 137 721h601q28 -157 153 -731q69 -300 191 -805h-547l-37 133q-23 -9 -115 -61q-59 -38 -131 -101l-57 121q-17 36 -49 101l-54 -193h-290zM353 1771q61 36 200 123q75 49 189 164l82 -125q26 -40 77 -111q-67 -42 -227 -124 q-91 -41 -235 -74l-41 67q-17 29 -45 80zM358 285q30 0 136 12q64 9 139 31q-17 53 -60 172q-26 66 -79 182q-23 -58 -72 -190q-27 -76 -64 -207z" />
<glyph unicode="&#xe2;" horiz-adv-x="1260" d="M-16 0q64 247 198 815q82 380 137 721h601q28 -157 153 -731q69 -300 191 -805h-547l-37 133q-23 -9 -115 -61q-59 -38 -131 -101l-57 121q-17 36 -49 101l-54 -193h-290zM246 1824q61 24 205 90q72 38 184 115q56 -38 186 -115q78 -41 205 -90l-74 -194l-161 74 q-54 24 -156 79q-43 -25 -145 -79q-71 -33 -170 -74zM358 285q30 0 136 12q64 9 139 31q-17 53 -60 172q-26 66 -79 182q-23 -58 -72 -190q-27 -76 -64 -207z" />
<glyph unicode="&#xe3;" horiz-adv-x="1260" d="M-16 0q64 247 198 815q82 380 137 721h601q28 -157 153 -731q69 -300 191 -805h-547l-37 133q-23 -9 -115 -61q-59 -38 -131 -101l-57 121q-17 36 -49 101l-54 -193h-290zM236 1708q29 100 98 171q75 77 160 77q90 0 180 -40t125 -40q52 0 76 76l151 -78 q-70 -240 -237 -240q-59 0 -153.5 37t-151.5 37q-61 0 -82 -70zM358 285q30 0 136 12q64 9 139 31q-17 53 -60 172q-26 66 -79 182q-23 -58 -72 -190q-27 -76 -64 -207z" />
<glyph unicode="&#xe4;" horiz-adv-x="1260" d="M-16 0q64 247 198 815q82 380 137 721h601q28 -157 153 -731q69 -300 191 -805h-547l-37 133q-23 -9 -115 -61q-59 -38 -131 -101l-57 121q-17 36 -49 101l-54 -193h-290zM275 1776q0 61 42 104t103 43q63 0 106.5 -43t43.5 -104q0 -63 -44 -105.5t-108 -42.5 q-60 0 -101.5 43t-41.5 105zM358 285q30 0 136 12q64 9 139 31q-17 53 -60 172q-26 66 -79 182q-23 -58 -72 -190q-27 -76 -64 -207zM676 1776q0 61 42 104t104 43t105.5 -43t43.5 -104q0 -63 -44 -105.5t-107 -42.5q-60 0 -102 43t-42 105z" />
<glyph unicode="&#xe5;" horiz-adv-x="1260" d="M-16 0q64 247 198 815q82 380 137 721h601q28 -157 153 -731q69 -300 191 -805h-547l-37 133q-23 -9 -115 -61q-59 -38 -131 -101l-57 121q-17 36 -49 101l-54 -193h-290zM358 285q30 0 136 12q64 9 139 31q-17 53 -60 172q-26 66 -79 182q-23 -58 -72 -190 q-27 -76 -64 -207zM385 1872q0 103 74 175t178 72q102 0 175 -72t73 -175t-73 -175.5t-175 -72.5q-103 0 -177.5 72.5t-74.5 175.5zM551 1872q0 -33 25.5 -59.5t60.5 -26.5q33 0 57.5 27t24.5 59q0 31 -24.5 58.5t-57.5 27.5q-35 0 -60.5 -27t-25.5 -59z" />
<glyph unicode="&#xe6;" horiz-adv-x="1647" d="M-43 0q92 222 301 754q89 230 293 782h1051l-43 -633q-39 5 -160 17q-78 5 -178 4l-15 -181q109 -7 353 5q-10 -37 -35 -138q-15 -61 -25 -141q-29 7 -145 18q-54 3 -154 2l-10 -223q74 0 270 13q112 11 125 24q-8 -31 -37 -149q-14 -61 -35 -154h-895l-10 121 q-26 -14 -86 -49q-59 -38 -114 -101q-18 35 -58 121q-16 37 -49 101l-53 -193h-291zM340 285q26 3 127 12q59 4 139 31q-2 69 -10 221l-18 305q-68 -146 -162 -367q-27 -76 -76 -202z" />
<glyph unicode="&#xe7;" horiz-adv-x="1217" d="M35 774q0 344 210 556q224 226 619 226q190 0 275 -22l32 -627q-55 17 -141 17q-160 0 -260 -84q-113 -94 -113 -271q0 -138 89.5 -226.5t234.5 -88.5q99 0 188 49q-10 -41 -34 -151q-14 -73 -27 -152q-112 -43 -287 -43q-317 0 -542 213q-244 232 -244 604zM597 -299 q23 17 95 137q37 78 37 180l231 -137q-14 -47 -76 -166q-55 -81 -155 -131q-23 23 -60 58q-21 18 -72 59z" />
<glyph unicode="&#xe8;" horiz-adv-x="1137" d="M41 1536h1051l-43 -633q-37 6 -160 21q-84 8 -184 10l-15 -191q110 -3 359 5q-11 -37 -35 -138q-14 -61 -25 -141q-29 7 -145 18q-54 3 -160 2l-10 -223q75 1 276 13q38 3 125 24q-8 -31 -37 -149q-14 -61 -34 -154h-895l-29 784q-8 269 -39 752zM313 1822q25 34 78 111 q30 46 82 125q55 -56 188 -164q72 -48 201 -123l-43 -80q-15 -22 -41 -67q-66 14 -236 74q-89 38 -229 124z" />
<glyph unicode="&#xe9;" horiz-adv-x="1137" d="M41 1536h1051l-43 -633q-37 6 -160 21q-84 8 -184 10l-15 -191q110 -3 359 5q-11 -37 -35 -138q-14 -61 -25 -141q-29 7 -145 18q-54 3 -160 2l-10 -223q75 1 276 13q38 3 125 24q-8 -31 -37 -149q-14 -61 -34 -154h-895l-29 784q-8 269 -39 752zM334 1775q61 36 200 123 q75 49 189 164l82 -125q26 -40 77 -111q-67 -42 -227 -124q-91 -41 -235 -74l-41 67q-17 29 -45 80z" />
<glyph unicode="&#xea;" horiz-adv-x="1137" d="M41 1536h1051l-43 -633q-37 6 -160 21q-84 8 -184 10l-15 -191q110 -3 359 5q-11 -37 -35 -138q-14 -61 -25 -141q-29 7 -145 18q-54 3 -160 2l-10 -223q75 1 276 13q38 3 125 24q-8 -31 -37 -149q-14 -61 -34 -154h-895l-29 784q-8 269 -39 752zM197 1822q61 24 205 90 q72 38 184 115q56 -38 186 -115q78 -41 205 -90l-74 -194l-161 74q-54 24 -156 79q-43 -25 -145 -79q-71 -33 -170 -74z" />
<glyph unicode="&#xeb;" horiz-adv-x="1137" d="M41 1536h1051l-43 -633q-37 6 -160 21q-84 8 -184 10l-15 -191q110 -3 359 5q-11 -37 -35 -138q-14 -61 -25 -141q-29 7 -145 18q-54 3 -160 2l-10 -223q75 1 276 13q38 3 125 24q-8 -31 -37 -149q-14 -61 -34 -154h-895l-29 784q-8 269 -39 752zM232 1770q0 61 42 104 t103 43q63 0 106.5 -43t43.5 -104q0 -63 -44 -105.5t-108 -42.5q-60 0 -101.5 43t-41.5 105zM633 1770q0 61 42 104t104 43t105.5 -43t43.5 -104q0 -63 -44 -105.5t-107 -42.5q-60 0 -102 43t-42 105z" />
<glyph unicode="&#xec;" horiz-adv-x="776" d="M41 1536h694l-39 -817q-11 -264 -26 -719h-561zM121 1828q25 34 78 111q30 46 82 125q55 -56 188 -164q72 -48 201 -123l-43 -80q-15 -22 -41 -67q-66 14 -236 74q-89 38 -229 124z" />
<glyph unicode="&#xed;" horiz-adv-x="776" d="M41 1536h694l-39 -817q-11 -264 -26 -719h-561zM125 1773q61 36 200 123q75 49 189 164l82 -125q26 -40 77 -111q-67 -42 -227 -124q-91 -41 -235 -74l-41 67q-17 29 -45 80z" />
<glyph unicode="&#xee;" horiz-adv-x="776" d="M41 1536h694l-39 -817q-11 -264 -26 -719h-561zM41 1828q61 24 205 90q72 38 184 115q56 -38 186 -115q78 -41 205 -90l-74 -194l-161 74q-54 24 -156 79q-43 -25 -145 -79q-71 -33 -170 -74z" />
<glyph unicode="&#xef;" horiz-adv-x="776" d="M41 1536h694l-39 -817q-11 -264 -26 -719h-561zM47 1774q0 61 42 104t103 43q63 0 106.5 -43t43.5 -104q0 -63 -44 -105.5t-108 -42.5q-60 0 -101.5 43t-41.5 105zM448 1774q0 61 42 104t104 43t105.5 -43t43.5 -104q0 -63 -44 -105.5t-107 -42.5q-60 0 -102 43t-42 105z " />
<glyph unicode="&#xf0;" horiz-adv-x="1516" d="M31 631l867 -2l-21 -178l-821 3l-3 -3zM119 1532q217 31 453 31q421 0 659 -196q254 -210 254 -611q0 -361 -224 -568q-231 -215 -651 -215q-270 0 -417 27l-27 743q-13 286 -47 789zM764 276q128 8 209 83q102 93 102 274q0 147 -95 217q-79 58 -202 53z" />
<glyph unicode="&#xf1;" horiz-adv-x="1311" d="M41 1536h502l372 -352q0 121 -4 190q-3 61 -12 162h371q-14 -202 -39 -705q-15 -370 -25 -851q-131 103 -399 307q-116 81 -346 243l-10 -530h-322q-8 203 -37 766q-25 456 -51 770zM246 1708q29 100 98 171q75 77 160 77q90 0 180 -40t125 -40q52 0 76 76l151 -78 q-70 -240 -237 -240q-59 0 -153.5 37t-151.5 37q-61 0 -82 -70z" />
<glyph unicode="&#xf2;" d="M35 801q0 377 195 592q184 202 481 202q292 0 476 -203q195 -216 195 -591q0 -353 -182 -597q-191 -255 -489 -255q-307 0 -497 257q-179 242 -179 595zM424 1832q25 34 78 111q30 46 82 125q55 -56 188 -164q72 -48 201 -123l-43 -80q-15 -22 -41 -67q-66 14 -236 74 q-89 38 -229 124zM530 623q0 -112 48 -209q54 -109 133 -109q77 0 136 111q54 101 54 209q0 278 -188 278q-183 0 -183 -280z" />
<glyph unicode="&#xf3;" d="M35 801q0 377 195 592q184 202 481 202q292 0 476 -203q195 -216 195 -591q0 -353 -182 -597q-191 -255 -489 -255q-307 0 -497 257q-179 242 -179 595zM424 1781q61 36 200 123q75 49 189 164l82 -125q26 -40 77 -111q-67 -42 -227 -124q-91 -41 -235 -74l-41 67 q-17 29 -45 80zM530 623q0 -112 48 -209q54 -109 133 -109q77 0 136 111q54 101 54 209q0 278 -188 278q-183 0 -183 -280z" />
<glyph unicode="&#xf4;" d="M35 801q0 377 195 592q184 202 481 202q292 0 476 -203q195 -216 195 -591q0 -353 -182 -597q-191 -255 -489 -255q-307 0 -497 257q-179 242 -179 595zM320 1824q61 24 205 90q72 38 184 115q56 -38 186 -115q78 -41 205 -90l-74 -194l-161 74q-54 24 -156 79 q-43 -25 -145 -79q-71 -33 -170 -74zM530 623q0 -112 48 -209q54 -109 133 -109q77 0 136 111q54 101 54 209q0 278 -188 278q-183 0 -183 -280z" />
<glyph unicode="&#xf5;" d="M35 801q0 377 195 592q184 202 481 202q292 0 476 -203q195 -216 195 -591q0 -353 -182 -597q-191 -255 -489 -255q-307 0 -497 257q-179 242 -179 595zM307 1722q29 100 98 171q75 77 160 77q90 0 180 -40t125 -40q52 0 76 76l151 -78q-70 -240 -237 -240 q-59 0 -153.5 37t-151.5 37q-61 0 -82 -70zM530 623q0 -112 48 -209q54 -109 133 -109q77 0 136 111q54 101 54 209q0 278 -188 278q-183 0 -183 -280z" />
<glyph unicode="&#xf6;" d="M35 801q0 377 195 592q184 202 481 202q292 0 476 -203q195 -216 195 -591q0 -353 -182 -597q-191 -255 -489 -255q-307 0 -497 257q-179 242 -179 595zM357 1786q0 61 42 104t103 43q63 0 106.5 -43t43.5 -104q0 -63 -44 -105.5t-108 -42.5q-60 0 -101.5 43t-41.5 105z M530 623q0 -112 48 -209q54 -109 133 -109q77 0 136 111q54 101 54 209q0 278 -188 278q-183 0 -183 -280zM758 1786q0 61 42 104t104 43t105.5 -43t43.5 -104q0 -63 -44 -105.5t-107 -42.5q-60 0 -102 43t-42 105z" />
<glyph unicode="&#xf7;" horiz-adv-x="1120" d="M82 846h956l-45 -240h-862zM381 354q0 63 51.5 102.5t126.5 39.5q69 0 120 -40t51 -103q0 -60 -51.5 -101t-119.5 -41q-72 0 -125 41t-53 102zM381 1098q0 63 51.5 102.5t126.5 39.5q69 0 119 -39q52 -42 52 -105q0 -60 -51.5 -101t-119.5 -41q-72 0 -125 41t-53 103z " />
<glyph unicode="&#xf8;" d="M35 801q0 377 195 592q184 202 481 202q292 0 476 -203q195 -216 195 -591q0 -353 -182 -597q-191 -255 -489 -255q-307 0 -497 257q-179 242 -179 595zM227 -111l987 1737l136 -74l-1004 -1732zM530 623q0 -112 48 -209q54 -109 133 -109q77 0 136 111q54 101 54 209 q0 278 -188 278q-183 0 -183 -280z" />
<glyph unicode="&#xf9;" horiz-adv-x="1436" d="M33 1536h645q-5 -132 -12 -430q-3 -166 2 -471q1 -232 40 -313q41 -86 164 -86q35 0 78 20q0 206 -12 655q-10 225 -37 625h494l-23 -647q-10 -277 -10 -838q-256 -92 -522 -92q-328 0 -499 131q-145 111 -205 346q-35 135 -66 494q-30 332 -37 606zM508 1824 q25 34 78 111q30 46 82 125q55 -56 188 -164q72 -48 201 -123l-43 -80q-15 -22 -41 -67q-66 14 -236 74q-89 38 -229 124z" />
<glyph unicode="&#xfa;" horiz-adv-x="1436" d="M33 1536h645q-5 -132 -12 -430q-3 -166 2 -471q1 -232 40 -313q41 -86 164 -86q35 0 78 20q0 206 -12 655q-10 225 -37 625h494l-23 -647q-10 -277 -10 -838q-256 -92 -522 -92q-328 0 -499 131q-145 111 -205 346q-35 135 -66 494q-30 332 -37 606zM562 1784 q61 36 200 123q75 49 189 164l82 -125q26 -40 77 -111q-67 -42 -227 -124q-91 -41 -235 -74l-41 67q-17 29 -45 80z" />
<glyph unicode="&#xfb;" horiz-adv-x="1436" d="M33 1536h645q-5 -132 -12 -430q-3 -166 2 -471q1 -232 40 -313q41 -86 164 -86q35 0 78 20q0 206 -12 655q-10 225 -37 625h494l-23 -647q-10 -277 -10 -838q-256 -92 -522 -92q-328 0 -499 131q-145 111 -205 346q-35 135 -66 494q-30 332 -37 606zM359 1833 q61 24 205 90q72 38 184 115q56 -38 186 -115q78 -41 205 -90l-74 -194l-161 74q-54 24 -156 79q-43 -25 -145 -79q-71 -33 -170 -74z" />
<glyph unicode="&#xfc;" horiz-adv-x="1436" d="M33 1536h645q-5 -132 -12 -430q-3 -166 2 -471q1 -232 40 -313q41 -86 164 -86q35 0 78 20q0 206 -12 655q-10 225 -37 625h494l-23 -647q-10 -277 -10 -838q-256 -92 -522 -92q-328 0 -499 131q-145 111 -205 346q-35 135 -66 494q-30 332 -37 606zM418 1774 q0 61 42 104t103 43q63 0 106.5 -43t43.5 -104q0 -63 -44 -105.5t-108 -42.5q-60 0 -101.5 43t-41.5 105zM819 1774q0 61 42 104t104 43t105.5 -43t43.5 -104q0 -63 -44 -105.5t-107 -42.5q-60 0 -102 43t-42 105z" />
<glyph unicode="&#xfd;" horiz-adv-x="1438" d="M10 1536h738q18 -65 63 -205l96 -270q38 92 103 272q22 71 57 203h358l-188 -348q-76 -143 -205 -400q-12 -140 -31 -397q-6 -137 -20 -391h-512q-4 124 -18 397q-8 103 -37 391q-52 107 -174 347q-79 146 -230 401zM623 1779q61 36 200 123q75 49 189 164l82 -125 q26 -40 77 -111q-67 -42 -227 -124q-91 -41 -235 -74l-41 67q-17 29 -45 80z" />
<glyph unicode="&#xfe;" horiz-adv-x="1362" d="M41 1536h694q-2 -51 -6 -123q602 -80 602 -620q0 -281 -179 -451.5t-476 -173.5l-4 -168h-563l-29 719q-11 285 -39 817zM686 442q86 0 125 13q104 35 104 151q0 161 -194 161q-14 0 -25 -1l-2 -45q-4 -94 -8 -279z" />
<glyph unicode="&#xff;" horiz-adv-x="1438" d="M10 1536h738q18 -65 63 -205l96 -270q38 92 103 272q22 71 57 203h358l-188 -348q-76 -143 -205 -400q-12 -140 -31 -397q-6 -137 -20 -391h-512q-4 124 -18 397q-8 103 -37 391q-52 107 -174 347q-79 146 -230 401zM453 1774q0 61 42 104t103 43q63 0 106.5 -43 t43.5 -104q0 -63 -44 -105.5t-108 -42.5q-60 0 -101.5 43t-41.5 105zM854 1774q0 61 42 104t104 43t105.5 -43t43.5 -104q0 -63 -44 -105.5t-107 -42.5q-60 0 -102 43t-42 105z" />
<glyph unicode="&#x152;" horiz-adv-x="1892" d="M35 801q0 377 195 592q184 202 481 202q152 0 280 -59h856l-43 -633q-39 5 -159 17q-78 5 -179 4l-14 -181q108 -7 352 5q-10 -37 -35 -138q-14 -61 -24 -141q-29 7 -146 18q-53 3 -153 2l-10 -223q73 0 270 13q111 11 125 24q-8 -31 -37 -149q-15 -61 -35 -154h-815 q-111 -51 -233 -51q-307 -1 -497 256q-179 242 -179 596zM530 623q5 -115 50 -209q53 -109 131 -109q77 0 136 111q54 101 54 209q0 278 -184 278q-99 0 -148 -83q-43 -73 -39 -197z" />
<glyph unicode="&#x153;" horiz-adv-x="1892" d="M35 801q0 377 195 592q184 202 481 202q152 0 280 -59h856l-43 -633q-39 5 -159 17q-78 5 -179 4l-14 -181q108 -7 352 5q-10 -37 -35 -138q-14 -61 -24 -141q-29 7 -146 18q-53 3 -153 2l-10 -223q73 0 270 13q111 11 125 24q-8 -31 -37 -149q-15 -61 -35 -154h-815 q-111 -51 -233 -51q-307 -1 -497 256q-179 242 -179 596zM530 623q5 -115 50 -209q53 -109 131 -109q77 0 136 111q54 101 54 209q0 278 -184 278q-99 0 -148 -83q-43 -73 -39 -197z" />
<glyph unicode="&#x178;" horiz-adv-x="1438" d="M10 1536h738q18 -65 63 -205l96 -270q38 92 103 272q22 71 57 203h358l-188 -348q-76 -143 -205 -400q-12 -140 -31 -397q-6 -137 -20 -391h-512q-4 124 -18 397q-8 103 -37 391q-52 107 -174 347q-79 146 -230 401zM453 1774q0 61 42 104t103 43q63 0 106.5 -43 t43.5 -104q0 -63 -44 -105.5t-108 -42.5q-60 0 -101.5 43t-41.5 105zM854 1774q0 61 42 104t104 43t105.5 -43t43.5 -104q0 -63 -44 -105.5t-107 -42.5q-60 0 -102 43t-42 105z" />
<glyph unicode="&#x2c6;" horiz-adv-x="1280" d="M250 1808q61 24 205 90q72 38 184 115q56 -38 186 -115q78 -41 205 -90l-74 -194l-161 74q-54 24 -156 79q-43 -25 -145 -79q-71 -33 -170 -74z" />
<glyph unicode="&#x2dc;" horiz-adv-x="1280" d="M246 1712q29 100 98 171q75 77 160 77q90 0 180 -40t125 -40q52 0 76 76l151 -78q-70 -240 -237 -240q-59 0 -153.5 37t-151.5 37q-61 0 -82 -70z" />
<glyph unicode="&#x2000;" horiz-adv-x="1059" />
<glyph unicode="&#x2001;" horiz-adv-x="2119" />
<glyph unicode="&#x2002;" horiz-adv-x="1059" />
<glyph unicode="&#x2003;" horiz-adv-x="2119" />
<glyph unicode="&#x2004;" horiz-adv-x="706" />
<glyph unicode="&#x2005;" horiz-adv-x="529" />
<glyph unicode="&#x2006;" horiz-adv-x="353" />
<glyph unicode="&#x2007;" horiz-adv-x="353" />
<glyph unicode="&#x2008;" horiz-adv-x="264" />
<glyph unicode="&#x2009;" horiz-adv-x="423" />
<glyph unicode="&#x200a;" horiz-adv-x="117" />
<glyph unicode="&#x2010;" horiz-adv-x="850" d="M123 657h604l-45 -305h-510z" />
<glyph unicode="&#x2011;" horiz-adv-x="850" d="M123 657h604l-45 -305h-510z" />
<glyph unicode="&#x2012;" horiz-adv-x="850" d="M123 657h604l-45 -305h-510z" />
<glyph unicode="&#x2013;" horiz-adv-x="1010" d="M123 657h764l-45 -305h-670z" />
<glyph unicode="&#x2014;" horiz-adv-x="1624" d="M123 657h1378l-45 -305h-1284z" />
<glyph unicode="&#x2018;" horiz-adv-x="537" d="M76 1552l252 103q12 -76 80 -375q44 -184 92 -332l-195 -114q-21 57 -117 340q-74 228 -112 378z" />
<glyph unicode="&#x2019;" horiz-adv-x="537" d="M37 948q23 67 94 332q50 207 78 375l252 -103q-16 -66 -113 -378q-68 -210 -117 -340z" />
<glyph unicode="&#x201a;" horiz-adv-x="537" d="M37 -86q23 66 94 334q50 207 78 375l252 -103q-16 -66 -113 -381q-68 -209 -117 -340z" />
<glyph unicode="&#x201c;" horiz-adv-x="842" d="M63 1335l228 144q16 -65 112 -365q64 -188 123 -334l-190 -108q-30 61 -143 327q-73 179 -130 336zM379 1552l252 103q12 -76 78 -375q43 -184 92 -332l-195 -114q-21 57 -114 340q-74 228 -113 378z" />
<glyph unicode="&#x201d;" horiz-adv-x="842" d="M41 948q23 67 94 332q50 207 78 375l252 -103q-16 -66 -113 -378q-68 -210 -116 -340zM315 780q28 66 123 334q74 219 113 365l227 -144q-25 -71 -129 -336q-77 -190 -143 -327z" />
<glyph unicode="&#x201e;" horiz-adv-x="842" d="M41 -35q23 67 94 332q50 207 78 375l252 -103q-16 -66 -113 -381q-68 -209 -116 -340zM315 -203q28 66 123 332q74 219 113 365l227 -142q-25 -72 -129 -336q-77 -190 -143 -327z" />
<glyph unicode="&#x2022;" horiz-adv-x="909" d="M90 768q0 151 107 259t256 108q150 0 258 -108t108 -259q0 -149 -108 -255.5t-258 -106.5q-149 0 -256 106.5t-107 255.5z" />
<glyph unicode="&#x2026;" horiz-adv-x="1864" d="M123 156q0 81 65 132.5t162 51.5q91 0 157 -52t66 -134q0 -79 -66.5 -132t-156.5 -53q-94 0 -160.5 53.5t-66.5 133.5zM700 160q0 81 65.5 132.5t162.5 51.5q91 0 155 -51q68 -53 68 -135q0 -78 -67 -131.5t-156 -53.5q-94 0 -161 53.5t-67 133.5zM1290 160 q0 81 65.5 132.5t162.5 51.5q90 0 156.5 -52t66.5 -134q0 -78 -67 -131.5t-156 -53.5q-94 0 -161 53.5t-67 133.5z" />
<glyph unicode="&#x202f;" horiz-adv-x="423" />
<glyph unicode="&#x2039;" horiz-adv-x="725" d="M123 735q54 86 168 279q43 78 121 233l190 -110l-221 -402l221 -407l-188 -111q-42 82 -133 254q-52 93 -158 264z" />
<glyph unicode="&#x203a;" horiz-adv-x="725" d="M123 328l221 407l-221 402l190 110q37 -74 121 -233q55 -99 168 -279q-51 -82 -158 -264q-47 -84 -133 -254z" />
<glyph unicode="&#x205f;" horiz-adv-x="529" />
<glyph unicode="&#x20ac;" horiz-adv-x="1368" d="M20 762h166v12q0 344 211 556q224 226 619 226q190 0 274 -22l33 -627q-56 17 -141 17q-215 0 -320 -162h355l-11 -152h-395q-2 -12 -2 -41q0 -16 4 -53h385l-14 -131h-320q89 -131 269 -131q98 0 188 49q-11 -41 -35 -151q-14 -73 -26 -152q-112 -43 -287 -43 q-219 0 -406 110q-194 115 -295 318h-221l-14 131h186q-16 62 -22 94h-168z" />
<glyph unicode="&#x2122;" horiz-adv-x="1489" d="M61 1536h555l-12 -254l-57 6q-27 2 -76 2q-3 -23 -10 -114l-17 -261h-215q-3 81 -12 256q-4 61 -10 119l-70 -2l-65 -6zM678 1536h254q12 -29 45 -94q25 -48 70 -113q18 28 69 115q19 32 47 92h234q-6 -85 -19 -309q-8 -150 -10 -312h-160l-6 189l-155 -203l-170 203 l-5 -189h-159l-15 314q-7 127 -20 307z" />
<glyph unicode="&#x25fc;" horiz-adv-x="1535" d="M0 0v1535h1535v-1535h-1535z" />
<glyph unicode="&#xfb01;" horiz-adv-x="1024" d="M128 0v1633h768v-1633h-768zM256 128h512v1377h-512v-1377z" />
<glyph unicode="&#xfb02;" horiz-adv-x="1024" d="M128 0v1633h768v-1633h-768zM256 128h512v1377h-512v-1377z" />
</font>
</defs>
</svg>
